<svg xmlns="http://www.w3.org/2000/svg" viewBox="0 0 296.154 296.154" style="enable-background:new 0 0 296.154 296.154" xml:space="preserve"><path d="M293.811 102.727c-38.927-38.926-90.683-60.365-145.734-60.365S41.27 63.801 2.344 102.727a8 8 0 0 0 11.315 11.314c35.904-35.904 83.642-55.68 134.419-55.68 50.777 0 98.516 19.775 134.42 55.68a7.973 7.973 0 0 0 5.657 2.344 8.002 8.002 0 0 0 5.656-13.658z"/><path d="M148.077 86.829c-43.174 0-83.764 16.813-114.292 47.34a8 8 0 0 0 11.314 11.314c27.506-27.506 64.077-42.654 102.978-42.654 38.899 0 75.471 15.148 102.977 42.654a8 8 0 0 0 11.314-11.314c-30.528-30.528-71.118-47.34-114.291-47.34z"/><path d="M148.076 130.407c-31.533 0-61.18 12.281-83.478 34.578a8 8 0 0 0 11.314 11.314c19.275-19.275 44.903-29.893 72.163-29.893s52.888 10.617 72.163 29.893a7.973 7.973 0 0 0 5.657 2.344 7.969 7.969 0 0 0 5.656-2.344 7.999 7.999 0 0 0 .001-11.313c-22.296-22.298-51.941-34.579-83.476-34.579z"/><path d="M148.076 174.428c-19.774 0-38.365 7.701-52.349 21.686a7.999 7.999 0 0 0 .001 11.313 8 8 0 0 0 11.313 0c10.961-10.961 25.534-16.998 41.034-16.998 15.501 0 30.074 6.037 41.035 16.998a7.973 7.973 0 0 0 5.657 2.344 7.969 7.969 0 0 0 5.656-2.344 7.999 7.999 0 0 0 .001-11.313c-13.981-13.984-32.572-21.686-52.348-21.686zm.001 47.362a15.955 15.955 0 0 0-11.315 4.686c-6.248 6.248-6.248 16.381 0 22.627a15.952 15.952 0 0 0 11.315 4.689 15.95 15.95 0 0 0 11.314-4.689c6.248-6.246 6.248-16.379 0-22.627a15.949 15.949 0 0 0-11.314-4.686z"/></svg>